# xmcd CD database file
#
# Track frame offsets:
#	150
#	14267
#	27186
#	39826
#	52865
#	67644
#	80144
#	93100
#	106101
#	119097
#	132589
#	145965
#	159608
#	173382
#	186416
#	198969
#	212892
#	226717
#	241146
#	253056
#	267381
#	279113
#	292869
#	306324
#	320165
#
# Disc length: 4436 seconds
#
# Revision: 0
# Processed by: cddbd v1.5.2PL0 Copyright (c) Steve Scherf et al.
# Submitted via: CDex 1.51
#
DISCID=57115219
DTITLE=Sam Lanin - Recordings From 1925 To 1930
DYEAR=1930
DGENRE=Jazz
TTITLE0=Paddlin' Madelin' Home
TTITLE1=Spanish Shawl
TTITLE2=Sweet Child (I'm Wild About You)
TTITLE3=I Want Somebody To Cheer Me Up
TTITLE4=Hello, Aloha, How Are You
TTITLE5=Who Could Be More Wonderful Than You
TTITLE6=Lay Me Down To Sleep In Carolina
TTITLE7=Hello, Bluebird
TTITLE8=My Baby Knows How
TTITLE9=I Know That You Know
TTITLE10=Since I've Found You
TTITLE11=I'm Looking Over A Four-Leaf Clover
TTITLE12=Honolulu Moon
TTITLE13=Barbara
TTITLE14=Where Is My Meyer (Where's Himalaya)
TTITLE15=Chloe (Song Of The Swamp)
TTITLE16=I'm Always Smiling
TTITLE17=Sunshine
TTITLE18=Why Can't You
TTITLE19=I'm In Seventh Heaven
TTITLE20=Blondy
TTITLE21=Singin' In The Bathtub
TTITLE22=When The Little Red Roses (Get The Blues For You)
TTITLE23=Sing A Little Theme Song
TTITLE24=Crying Myself To Sleep
EXTD=YEAR: 1930
EXTT0=
EXTT1=
EXTT2=
EXTT3=
EXTT4=
EXTT5=
EXTT6=
EXTT7=
EXTT8=
EXTT9=
EXTT10=
EXTT11=
EXTT12=
EXTT13=
EXTT14=
EXTT15=
EXTT16=
EXTT17=
EXTT18=
EXTT19=
EXTT20=
EXTT21=
EXTT22=
EXTT23=
EXTT24=
PLAYORDER=
